[STREAM]
index=0
codec_name=mp3
codec_long_name=MP3 (MPEG audio layer 3)
profile=unknown
codec_type=audio
codec_time_base=1/44100
codec_tag_string=[0][0][0][0]
codec_tag=0x0000
sample_fmt=fltp
sample_rate=44100
channels=1
channel_layout=mono
bits_per_sample=0
id=N/A
r_frame_rate=0/0
avg_frame_rate=0/0
time_base=1/14112000
start_pts=0
start_time=0.000000
duration_ts=29859581
duration=2.115900
bit_rate=160000
max_bit_rate=N/A
bits_per_raw_sample=N/A
nb_frames=N/A
nb_read_frames=N/A
nb_read_packets=N/A
DISPOSITION:default=0
DISPOSITION:dub=0
DISPOSITION:original=0
DISPOSITION:comment=0
DISPOSITION:lyrics=0
DISPOSITION:karaoke=0
DISPOSITION:forced=0
DISPOSITION:hearing_impaired=0
DISPOSITION:visual_impaired=0
DISPOSITION:clean_effects=0
DISPOSITION:attached_pic=0
DISPOSITION:timed_thumbnails=0
[/STREAM]
[STREAM]
index=0
codec_name=mp3
codec_long_name=MP3 (MPEG audio layer 3)
profile=unknown
codec_type=audio
codec_time_base=1/44100
codec_tag_string=[0][0][0][0]
codec_tag=0x0000
sample_fmt=fltp
sample_rate=44100
channels=1
channel_layout=mono
bits_per_sample=0
id=N/A
r_frame_rate=0/0
avg_frame_rate=0/0
time_base=1/14112000
start_pts=353600
start_time=0.025057
duration_ts=92528640
duration=6.556735
bit_rate=320000
max_bit_rate=N/A
bits_per_raw_sample=N/A
nb_frames=N/A
nb_read_frames=N/A
nb_read_packets=N/A
DISPOSITION:default=0
DISPOSITION:dub=0
DISPOSITION:original=0
DISPOSITION:comment=0
DISPOSITION:lyrics=0
DISPOSITION:karaoke=0
DISPOSITION:forced=0
DISPOSITION:hearing_impaired=0
DISPOSITION:visual_impaired=0
DISPOSITION:clean_effects=0
DISPOSITION:attached_pic=0
DISPOSITION:timed_thumbnails=0
TAG:encoder=LAME3.98r
[/STREAM]
[STREAM]
index=0
codec_name=mp3
codec_long_name=MP3 (MPEG audio layer 3)
profile=unknown
codec_type=audio
codec_time_base=1/48000
codec_tag_string=[0][0][0][0]
codec_tag=0x0000
sample_fmt=fltp
sample_rate=48000
channels=2
channel_layout=stereo
bits_per_sample=0
id=N/A
r_frame_rate=0/0
avg_frame_rate=0/0
time_base=1/14112000
start_pts=0
start_time=0.000000
duration_ts=43766016
duration=3.101333
bit_rate=192000
max_bit_rate=N/A
bits_per_raw_sample=N/A
nb_frames=N/A
nb_read_frames=N/A
nb_read_packets=N/A
DISPOSITION:default=0
DISPOSITION:dub=0
DISPOSITION:original=0
DISPOSITION:comment=0
DISPOSITION:lyrics=0
DISPOSITION:karaoke=0
DISPOSITION:forced=0
DISPOSITION:hearing_impaired=0
DISPOSITION:visual_impaired=0
DISPOSITION:clean_effects=0
DISPOSITION:attached_pic=0
DISPOSITION:timed_thumbnails=0
[/STREAM]
[STREAM]
index=0
codec_name=mp3
codec_long_name=MP3 (MPEG audio layer 3)
profile=unknown
codec_type=audio
codec_time_base=1/44100
codec_tag_string=[0][0][0][0]
codec_tag=0x0000
sample_fmt=fltp
sample_rate=44100
channels=2
channel_layout=stereo
bits_per_sample=0
id=N/A
r_frame_rate=0/0
avg_frame_rate=0/0
time_base=1/14112000
start_pts=0
start_time=0.000000
duration_ts=15482880
duration=1.097143
bit_rate=256000
max_bit_rate=N/A
bits_per_raw_sample=N/A
nb_frames=N/A
nb_read_frames=N/A
nb_read_packets=N/A
DISPOSITION:default=0
DISPOSITION:dub=0
DISPOSITION:original=0
DISPOSITION:comment=0
DISPOSITION:lyrics=0
DISPOSITION:karaoke=0
DISPOSITION:forced=0
DISPOSITION:hearing_impaired=0
DISPOSITION:visual_impaired=0
DISPOSITION:clean_effects=0
DISPOSITION:attached_pic=0
DISPOSITION:timed_thumbnails=0
[/STREAM]
[STREAM]
index=0
codec_name=mp3
codec_long_name=MP3 (MPEG audio layer 3)
profile=unknown
codec_type=audio
codec_time_base=1/44100
codec_tag_string=[0][0][0][0]
codec_tag=0x0000
sample_fmt=fltp
sample_rate=44100
channels=2
channel_layout=stereo
bits_per_sample=0
id=N/A
r_frame_rate=0/0
avg_frame_rate=0/0
time_base=1/14112000
start_pts=353600
start_time=0.025057
duration_ts=77414400
duration=5.485714
bit_rate=128000
max_bit_rate=N/A
bits_per_raw_sample=N/A
nb_frames=N/A
nb_read_frames=N/A
nb_read_packets=N/A
DISPOSITION:default=0
DISPOSITION:dub=0
DISPOSITION:original=0
DISPOSITION:comment=0
DISPOSITION:lyrics=0
DISPOSITION:karaoke=0
DISPOSITION:forced=0
DISPOSITION:hearing_impaired=0
DISPOSITION:visual_impaired=0
DISPOSITION:clean_effects=0
DISPOSITION:attached_pic=0
DISPOSITION:timed_thumbnails=0
TAG:encoder=LAME3.98r
[/STREAM]
[STREAM]
index=0
codec_name=mp3
codec_long_name=MP3 (MPEG audio layer 3)
profile=unknown
codec_type=audio
codec_time_base=1/44100
codec_tag_string=[0][0][0][0]
codec_tag=0x0000
sample_fmt=fltp
sample_rate=44100
channels=2
channel_layout=stereo
bits_per_sample=0
id=N/A
r_frame_rate=0/0
avg_frame_rate=0/0
time_base=1/14112000
start_pts=0
start_time=0.000000
duration_ts=239985144
duration=17.005750
bit_rate=128000
max_bit_rate=N/A
bits_per_raw_sample=N/A
nb_frames=N/A
nb_read_frames=N/A
nb_read_packets=N/A
DISPOSITION:default=0
DISPOSITION:dub=0
DISPOSITION:original=0
DISPOSITION:comment=0
DISPOSITION:lyrics=0
DISPOSITION:karaoke=0
DISPOSITION:forced=0
DISPOSITION:hearing_impaired=0
DISPOSITION:visual_impaired=0
DISPOSITION:clean_effects=0
DISPOSITION:attached_pic=0
DISPOSITION:timed_thumbnails=0
[/STREAM]
[STREAM]
index=0
codec_name=mp3
codec_long_name=MP3 (MPEG audio layer 3)
profile=unknown
codec_type=audio
codec_time_base=1/44100
codec_tag_string=[0][0][0][0]
codec_tag=0x0000
sample_fmt=fltp
sample_rate=44100
channels=2
channel_layout=stereo
bits_per_sample=0
id=N/A
r_frame_rate=0/0
avg_frame_rate=0/0
time_base=1/14112000
start_pts=0
start_time=0.000000
duration_ts=127918224
duration=9.064500
bit_rate=192000
max_bit_rate=N/A
bits_per_raw_sample=N/A
nb_frames=N/A
nb_read_frames=N/A
nb_read_packets=N/A
DISPOSITION:default=0
DISPOSITION:dub=0
DISPOSITION:original=0
DISPOSITION:comment=0
DISPOSITION:lyrics=0
DISPOSITION:karaoke=0
DISPOSITION:forced=0
DISPOSITION:hearing_impaired=0
DISPOSITION:visual_impaired=0
DISPOSITION:clean_effects=0
DISPOSITION:attached_pic=0
DISPOSITION:timed_thumbnails=0
[/STREAM]
[STREAM]
index=0
codec_name=mp3
codec_long_name=MP3 (MPEG audio layer 3)
profile=unknown
codec_type=audio
codec_time_base=1/44100
codec_tag_string=[0][0][0][0]
codec_tag=0x0000
sample_fmt=fltp
sample_rate=44100
channels=2
channel_layout=stereo
bits_per_sample=0
id=N/A
r_frame_rate=0/0
avg_frame_rate=0/0
time_base=1/14112000
start_pts=353600
start_time=0.025057
duration_ts=28016640
duration=1.985306
bit_rate=128000
max_bit_rate=N/A
bits_per_raw_sample=N/A
nb_frames=N/A
nb_read_frames=N/A
nb_read_packets=N/A
DISPOSITION:default=0
DISPOSITION:dub=0
DISPOSITION:original=0
DISPOSITION:comment=0
DISPOSITION:lyrics=0
DISPOSITION:karaoke=0
DISPOSITION:forced=0
DISPOSITION:hearing_impaired=0
DISPOSITION:visual_impaired=0
DISPOSITION:clean_effects=0
DISPOSITION:attached_pic=0
DISPOSITION:timed_thumbnails=0
TAG:encoder=LAME3.99r
[/STREAM]
[STREAM]
index=0
codec_name=mp3
codec_long_name=MP3 (MPEG audio layer 3)
profile=unknown
codec_type=audio
codec_time_base=1/11025
codec_tag_string=[0][0][0][0]
codec_tag=0x0000
sample_fmt=fltp
sample_rate=11025
channels=1
channel_layout=mono
bits_per_sample=0
id=N/A
r_frame_rate=0/0
avg_frame_rate=0/0
time_base=1/14112000
start_pts=0
start_time=0.000000
duration_ts=19079424
duration=1.352000
bit_rate=16000
max_bit_rate=N/A
bits_per_raw_sample=N/A
nb_frames=N/A
nb_read_frames=N/A
nb_read_packets=N/A
DISPOSITION:default=0
DISPOSITION:dub=0
DISPOSITION:original=0
DISPOSITION:comment=0
DISPOSITION:lyrics=0
DISPOSITION:karaoke=0
DISPOSITION:forced=0
DISPOSITION:hearing_impaired=0
DISPOSITION:visual_impaired=0
DISPOSITION:clean_effects=0
DISPOSITION:attached_pic=0
DISPOSITION:timed_thumbnails=0
[/STREAM]
[STREAM]
index=0
codec_name=mp3
codec_long_name=MP3 (MPEG audio layer 3)
profile=unknown
codec_type=audio
codec_time_base=1/11025
codec_tag_string=[0][0][0][0]
codec_tag=0x0000
sample_fmt=fltp
sample_rate=11025
channels=2
channel_layout=stereo
bits_per_sample=0
id=N/A
r_frame_rate=0/0
avg_frame_rate=0/0
time_base=1/14112000
start_pts=0
start_time=0.000000
duration_ts=17183124
duration=1.217625
bit_rate=64000
max_bit_rate=N/A
bits_per_raw_sample=N/A
nb_frames=N/A
nb_read_frames=N/A
nb_read_packets=N/A
DISPOSITION:default=0
DISPOSITION:dub=0
DISPOSITION:original=0
DISPOSITION:comment=0
DISPOSITION:lyrics=0
DISPOSITION:karaoke=0
DISPOSITION:forced=0
DISPOSITION:hearing_impaired=0
DISPOSITION:visual_impaired=0
DISPOSITION:clean_effects=0
DISPOSITION:attached_pic=0
DISPOSITION:timed_thumbnails=0
[/STREAM]
[STREAM]
index=0
codec_name=mp3
codec_long_name=MP3 (MPEG audio layer 3)
profile=unknown
codec_type=audio
codec_time_base=1/44100
codec_tag_string=[0][0][0][0]
codec_tag=0x0000
sample_fmt=fltp
sample_rate=44100
channels=2
channel_layout=stereo
bits_per_sample=0
id=N/A
r_frame_rate=0/0
avg_frame_rate=0/0
time_base=1/14112000
start_pts=0
start_time=0.000000
duration_ts=42875784
duration=3.038250
bit_rate=128000
max_bit_rate=N/A
bits_per_raw_sample=N/A
nb_frames=N/A
nb_read_frames=N/A
nb_read_packets=N/A
DISPOSITION:default=0
DISPOSITION:dub=0
DISPOSITION:original=0
DISPOSITION:comment=0
DISPOSITION:lyrics=0
DISPOSITION:karaoke=0
DISPOSITION:forced=0
DISPOSITION:hearing_impaired=0
DISPOSITION:visual_impaired=0
DISPOSITION:clean_effects=0
DISPOSITION:attached_pic=0
DISPOSITION:timed_thumbnails=0
[/STREAM]
[STREAM]
index=0
codec_name=mp3
codec_long_name=MP3 (MPEG audio layer 3)
profile=unknown
codec_type=audio
codec_time_base=1/22050
codec_tag_string=[0][0][0][0]
codec_tag=0x0000
sample_fmt=fltp
sample_rate=22050
channels=1
channel_layout=mono
bits_per_sample=0
id=N/A
r_frame_rate=0/0
avg_frame_rate=0/0
time_base=1/14112000
start_pts=0
start_time=0.000000
duration_ts=101743992
duration=7.209750
bit_rate=64000
max_bit_rate=N/A
bits_per_raw_sample=N/A
nb_frames=N/A
nb_read_frames=N/A
nb_read_packets=N/A
DISPOSITION:default=0
DISPOSITION:dub=0
DISPOSITION:original=0
DISPOSITION:comment=0
DISPOSITION:lyrics=0
DISPOSITION:karaoke=0
DISPOSITION:forced=0
DISPOSITION:hearing_impaired=0
DISPOSITION:visual_impaired=0
DISPOSITION:clean_effects=0
DISPOSITION:attached_pic=0
DISPOSITION:timed_thumbnails=0
[/STREAM]
[STREAM]
index=0
codec_name=mp3
codec_long_name=MP3 (MPEG audio layer 3)
profile=unknown
codec_type=audio
codec_time_base=1/44100
codec_tag_string=[0][0][0][0]
codec_tag=0x0000
sample_fmt=fltp
sample_rate=44100
channels=2
channel_layout=stereo
bits_per_sample=0
id=N/A
r_frame_rate=0/0
avg_frame_rate=0/0
time_base=1/14112000
start_pts=353600
start_time=0.025057
duration_ts=34652160
duration=2.455510
bit_rate=128000
max_bit_rate=N/A
bits_per_raw_sample=N/A
nb_frames=N/A
nb_read_frames=N/A
nb_read_packets=N/A
DISPOSITION:default=0
DISPOSITION:dub=0
DISPOSITION:original=0
DISPOSITION:comment=0
DISPOSITION:lyrics=0
DISPOSITION:karaoke=0
DISPOSITION:forced=0
DISPOSITION:hearing_impaired=0
DISPOSITION:visual_impaired=0
DISPOSITION:clean_effects=0
DISPOSITION:attached_pic=0
DISPOSITION:timed_thumbnails=0
TAG:encoder=LAME3.97 
[SIDE_DATA]
side_data_type=Replay Gain
[/SIDE_DATA]
[/STREAM]
[STREAM]
index=0
codec_name=mp3
codec_long_name=MP3 (MPEG audio layer 3)
profile=unknown
codec_type=audio
codec_time_base=1/44100
codec_tag_string=[0][0][0][0]
codec_tag=0x0000
sample_fmt=fltp
sample_rate=44100
channels=2
channel_layout=stereo
bits_per_sample=0
id=N/A
r_frame_rate=0/0
avg_frame_rate=0/0
time_base=1/14112000
start_pts=0
start_time=0.000000
duration_ts=38752258
duration=2.746050
bit_rate=320000
max_bit_rate=N/A
bits_per_raw_sample=N/A
nb_frames=N/A
nb_read_frames=N/A
nb_read_packets=N/A
DISPOSITION:default=0
DISPOSITION:dub=0
DISPOSITION:original=0
DISPOSITION:comment=0
DISPOSITION:lyrics=0
DISPOSITION:karaoke=0
DISPOSITION:forced=0
DISPOSITION:hearing_impaired=0
DISPOSITION:visual_impaired=0
DISPOSITION:clean_effects=0
DISPOSITION:attached_pic=0
DISPOSITION:timed_thumbnails=0
[/STREAM]
[STREAM]
index=0
codec_name=mp3
codec_long_name=MP3 (MPEG audio layer 3)
profile=unknown
codec_type=audio
codec_time_base=1/44100
codec_tag_string=[0][0][0][0]
codec_tag=0x0000
sample_fmt=fltp
sample_rate=44100
channels=2
channel_layout=stereo
bits_per_sample=0
id=N/A
r_frame_rate=0/0
avg_frame_rate=0/0
time_base=1/14112000
start_pts=353600
start_time=0.025057
duration_ts=26542080
duration=1.880816
bit_rate=128000
max_bit_rate=N/A
bits_per_raw_sample=N/A
nb_frames=N/A
nb_read_frames=N/A
nb_read_packets=N/A
DISPOSITION:default=0
DISPOSITION:dub=0
DISPOSITION:original=0
DISPOSITION:comment=0
DISPOSITION:lyrics=0
DISPOSITION:karaoke=0
DISPOSITION:forced=0
DISPOSITION:hearing_impaired=0
DISPOSITION:visual_impaired=0
DISPOSITION:clean_effects=0
DISPOSITION:attached_pic=0
DISPOSITION:timed_thumbnails=0
TAG:encoder=LAME3.98r
[/STREAM]
[STREAM]
index=0
codec_name=mp3
codec_long_name=MP3 (MPEG audio layer 3)
profile=unknown
codec_type=audio
codec_time_base=1/44100
codec_tag_string=[0][0][0][0]
codec_tag=0x0000
sample_fmt=fltp
sample_rate=44100
channels=2
channel_layout=stereo
bits_per_sample=0
id=N/A
r_frame_rate=0/0
avg_frame_rate=0/0
time_base=1/14112000
start_pts=353600
start_time=0.025057
duration_ts=42393600
duration=3.004082
bit_rate=128000
max_bit_rate=N/A
bits_per_raw_sample=N/A
nb_frames=N/A
nb_read_frames=N/A
nb_read_packets=N/A
DISPOSITION:default=0
DISPOSITION:dub=0
DISPOSITION:original=0
DISPOSITION:comment=0
DISPOSITION:lyrics=0
DISPOSITION:karaoke=0
DISPOSITION:forced=0
DISPOSITION:hearing_impaired=0
DISPOSITION:visual_impaired=0
DISPOSITION:clean_effects=0
DISPOSITION:attached_pic=0
DISPOSITION:timed_thumbnails=0
TAG:encoder=LAME3.99r
[SIDE_DATA]
side_data_type=Replay Gain
[/SIDE_DATA]
[/STREAM]
[STREAM]
index=0
codec_name=mp3
codec_long_name=MP3 (MPEG audio layer 3)
profile=unknown
codec_type=audio
codec_time_base=1/44100
codec_tag_string=[0][0][0][0]
codec_tag=0x0000
sample_fmt=fltp
sample_rate=44100
channels=2
channel_layout=stereo
bits_per_sample=0
id=N/A
r_frame_rate=0/0
avg_frame_rate=0/0
time_base=1/14112000
start_pts=353600
start_time=0.025057
duration_ts=151142400
duration=10.710204
bit_rate=188312
max_bit_rate=N/A
bits_per_raw_sample=N/A
nb_frames=N/A
nb_read_frames=N/A
nb_read_packets=N/A
DISPOSITION:default=0
DISPOSITION:dub=0
DISPOSITION:original=0
DISPOSITION:comment=0
DISPOSITION:lyrics=0
DISPOSITION:karaoke=0
DISPOSITION:forced=0
DISPOSITION:hearing_impaired=0
DISPOSITION:visual_impaired=0
DISPOSITION:clean_effects=0
DISPOSITION:attached_pic=0
DISPOSITION:timed_thumbnails=0
TAG:encoder=LAME3.99r
[/STREAM]
[STREAM]
index=0
codec_name=mp3
codec_long_name=MP3 (MPEG audio layer 3)
profile=unknown
codec_type=audio
codec_time_base=1/22050
codec_tag_string=[0][0][0][0]
codec_tag=0x0000
sample_fmt=fltp
sample_rate=22050
channels=1
channel_layout=mono
bits_per_sample=0
id=N/A
r_frame_rate=0/0
avg_frame_rate=0/0
time_base=1/14112000
start_pts=0
start_time=0.000000
duration_ts=74832408
duration=5.302750
bit_rate=64000
max_bit_rate=N/A
bits_per_raw_sample=N/A
nb_frames=N/A
nb_read_frames=N/A
nb_read_packets=N/A
DISPOSITION:default=0
DISPOSITION:dub=0
DISPOSITION:original=0
DISPOSITION:comment=0
DISPOSITION:lyrics=0
DISPOSITION:karaoke=0
DISPOSITION:forced=0
DISPOSITION:hearing_impaired=0
DISPOSITION:visual_impaired=0
DISPOSITION:clean_effects=0
DISPOSITION:attached_pic=0
DISPOSITION:timed_thumbnails=0
[/STREAM]
[STREAM]
index=0
codec_name=mp3
codec_long_name=MP3 (MPEG audio layer 3)
profile=unknown
codec_type=audio
codec_time_base=1/44100
codec_tag_string=[0][0][0][0]
codec_tag=0x0000
sample_fmt=fltp
sample_rate=44100
channels=2
channel_layout=stereo
bits_per_sample=0
id=N/A
r_frame_rate=0/0
avg_frame_rate=0/0
time_base=1/14112000
start_pts=353600
start_time=0.025057
duration_ts=13639680
duration=0.966531
bit_rate=128000
max_bit_rate=N/A
bits_per_raw_sample=N/A
nb_frames=N/A
nb_read_frames=N/A
nb_read_packets=N/A
DISPOSITION:default=0
DISPOSITION:dub=0
DISPOSITION:original=0
DISPOSITION:comment=0
DISPOSITION:lyrics=0
DISPOSITION:karaoke=0
DISPOSITION:forced=0
DISPOSITION:hearing_impaired=0
DISPOSITION:visual_impaired=0
DISPOSITION:clean_effects=0
DISPOSITION:attached_pic=0
DISPOSITION:timed_thumbnails=0
TAG:encoder=LAME3.99r
[/STREAM]
[STREAM]
index=0
codec_name=mp3
codec_long_name=MP3 (MPEG audio layer 3)
profile=unknown
codec_type=audio
codec_time_base=1/44100
codec_tag_string=[0][0][0][0]
codec_tag=0x0000
sample_fmt=fltp
sample_rate=44100
channels=2
channel_layout=stereo
bits_per_sample=0
id=N/A
r_frame_rate=0/0
avg_frame_rate=0/0
time_base=1/14112000
start_pts=0
start_time=0.000000
duration_ts=37232748
duration=2.638375
bit_rate=128000
max_bit_rate=N/A
bits_per_raw_sample=N/A
nb_frames=N/A
nb_read_frames=N/A
nb_read_packets=N/A
DISPOSITION:default=0
DISPOSITION:dub=0
DISPOSITION:original=0
DISPOSITION:comment=0
DISPOSITION:lyrics=0
DISPOSITION:karaoke=0
DISPOSITION:forced=0
DISPOSITION:hearing_impaired=0
DISPOSITION:visual_impaired=0
DISPOSITION:clean_effects=0
DISPOSITION:attached_pic=0
DISPOSITION:timed_thumbnails=0
[/STREAM]
[STREAM]
index=0
codec_name=mp3
codec_long_name=MP3 (MPEG audio layer 3)
profile=unknown
codec_type=audio
codec_time_base=1/48000
codec_tag_string=[0][0][0][0]
codec_tag=0x0000
sample_fmt=fltp
sample_rate=48000
channels=2
channel_layout=stereo
bits_per_sample=0
id=N/A
r_frame_rate=0/0
avg_frame_rate=0/0
time_base=1/14112000
start_pts=0
start_time=0.000000
duration_ts=4741632
duration=0.336000
bit_rate=192000
max_bit_rate=N/A
bits_per_raw_sample=N/A
nb_frames=N/A
nb_read_frames=N/A
nb_read_packets=N/A
DISPOSITION:default=0
DISPOSITION:dub=0
DISPOSITION:original=0
DISPOSITION:comment=0
DISPOSITION:lyrics=0
DISPOSITION:karaoke=0
DISPOSITION:forced=0
DISPOSITION:hearing_impaired=0
DISPOSITION:visual_impaired=0
DISPOSITION:clean_effects=0
DISPOSITION:attached_pic=0
DISPOSITION:timed_thumbnails=0
[/STREAM]
[STREAM]
index=0
codec_name=mp3
codec_long_name=MP3 (MPEG audio layer 3)
profile=unknown
codec_type=audio
codec_time_base=1/44100
codec_tag_string=[0][0][0][0]
codec_tag=0x0000
sample_fmt=fltp
sample_rate=44100
channels=1
channel_layout=mono
bits_per_sample=0
id=N/A
r_frame_rate=0/0
avg_frame_rate=0/0
time_base=1/14112000
start_pts=0
start_time=0.000000
duration_ts=256572036
duration=18.181125
bit_rate=64000
max_bit_rate=N/A
bits_per_raw_sample=N/A
nb_frames=N/A
nb_read_frames=N/A
nb_read_packets=N/A
DISPOSITION:default=0
DISPOSITION:dub=0
DISPOSITION:original=0
DISPOSITION:comment=0
DISPOSITION:lyrics=0
DISPOSITION:karaoke=0
DISPOSITION:forced=0
DISPOSITION:hearing_impaired=0
DISPOSITION:visual_impaired=0
DISPOSITION:clean_effects=0
DISPOSITION:attached_pic=0
DISPOSITION:timed_thumbnails=0
[/STREAM]
[STREAM]
index=0
codec_name=mp3
codec_long_name=MP3 (MPEG audio layer 3)
profile=unknown
codec_type=audio
codec_time_base=1/44100
codec_tag_string=[0][0][0][0]
codec_tag=0x0000
sample_fmt=fltp
sample_rate=44100
channels=2
channel_layout=stereo
bits_per_sample=0
id=N/A
r_frame_rate=0/0
avg_frame_rate=0/0
time_base=1/14112000
start_pts=0
start_time=0.000000
duration_ts=29490552
duration=2.089750
bit_rate=128000
max_bit_rate=N/A
bits_per_raw_sample=N/A
nb_frames=N/A
nb_read_frames=N/A
nb_read_packets=N/A
DISPOSITION:default=0
DISPOSITION:dub=0
DISPOSITION:original=0
DISPOSITION:comment=0
DISPOSITION:lyrics=0
DISPOSITION:karaoke=0
DISPOSITION:forced=0
DISPOSITION:hearing_impaired=0
DISPOSITION:visual_impaired=0
DISPOSITION:clean_effects=0
DISPOSITION:attached_pic=0
DISPOSITION:timed_thumbnails=0
[/STREAM]
[STREAM]
index=0
codec_name=mp3
codec_long_name=MP3 (MPEG audio layer 3)
profile=unknown
codec_type=audio
codec_time_base=1/44100
codec_tag_string=[0][0][0][0]
codec_tag=0x0000
sample_fmt=fltp
sample_rate=44100
channels=1
channel_layout=mono
bits_per_sample=0
id=N/A
r_frame_rate=0/0
avg_frame_rate=0/0
time_base=1/14112000
start_pts=0
start_time=0.000000
duration_ts=51123366
duration=3.622688
bit_rate=128000
max_bit_rate=N/A
bits_per_raw_sample=N/A
nb_frames=N/A
nb_read_frames=N/A
nb_read_packets=N/A
DISPOSITION:default=0
DISPOSITION:dub=0
DISPOSITION:original=0
DISPOSITION:comment=0
DISPOSITION:lyrics=0
DISPOSITION:karaoke=0
DISPOSITION:forced=0
DISPOSITION:hearing_impaired=0
DISPOSITION:visual_impaired=0
DISPOSITION:clean_effects=0
DISPOSITION:attached_pic=0
DISPOSITION:timed_thumbnails=0
[/STREAM]
[STREAM]
index=0
codec_name=mp3
codec_long_name=MP3 (MPEG audio layer 3)
profile=unknown
codec_type=audio
codec_time_base=1/44100
codec_tag_string=[0][0][0][0]
codec_tag=0x0000
sample_fmt=fltp
sample_rate=44100
channels=2
channel_layout=stereo
bits_per_sample=0
id=N/A
r_frame_rate=0/0
avg_frame_rate=0/0
time_base=1/14112000
start_pts=0
start_time=0.000000
duration_ts=161832888
duration=11.467750
bit_rate=128000
max_bit_rate=N/A
bits_per_raw_sample=N/A
nb_frames=N/A
nb_read_frames=N/A
nb_read_packets=N/A
DISPOSITION:default=0
DISPOSITION:dub=0
DISPOSITION:original=0
DISPOSITION:comment=0
DISPOSITION:lyrics=0
DISPOSITION:karaoke=0
DISPOSITION:forced=0
DISPOSITION:hearing_impaired=0
DISPOSITION:visual_impaired=0
DISPOSITION:clean_effects=0
DISPOSITION:attached_pic=0
DISPOSITION:timed_thumbnails=0
[/STREAM]
[STREAM]
index=0
codec_name=mp3
codec_long_name=MP3 (MPEG audio layer 3)
profile=unknown
codec_type=audio
codec_time_base=1/44100
codec_tag_string=[0][0][0][0]
codec_tag=0x0000
sample_fmt=fltp
sample_rate=44100
channels=2
channel_layout=stereo
bits_per_sample=0
id=N/A
r_frame_rate=0/0
avg_frame_rate=0/0
time_base=1/14112000
start_pts=353600
start_time=0.025057
duration_ts=16220160
duration=1.149388
bit_rate=128000
max_bit_rate=N/A
bits_per_raw_sample=N/A
nb_frames=N/A
nb_read_frames=N/A
nb_read_packets=N/A
DISPOSITION:default=0
DISPOSITION:dub=0
DISPOSITION:original=0
DISPOSITION:comment=0
DISPOSITION:lyrics=0
DISPOSITION:karaoke=0
DISPOSITION:forced=0
DISPOSITION:hearing_impaired=0
DISPOSITION:visual_impaired=0
DISPOSITION:clean_effects=0
DISPOSITION:attached_pic=0
DISPOSITION:timed_thumbnails=0
TAG:encoder=LAME3.98r
[/STREAM]
[STREAM]
index=0
codec_name=mp3
codec_long_name=MP3 (MPEG audio layer 3)
profile=unknown
codec_type=audio
codec_time_base=1/22050
codec_tag_string=[0][0][0][0]
codec_tag=0x0000
sample_fmt=fltp
sample_rate=22050
channels=1
channel_layout=mono
bits_per_sample=0
id=N/A
r_frame_rate=0/0
avg_frame_rate=0/0
time_base=1/14112000
start_pts=0
start_time=0.000000
duration_ts=72705024
duration=5.152000
bit_rate=32000
max_bit_rate=N/A
bits_per_raw_sample=N/A
nb_frames=N/A
nb_read_frames=N/A
nb_read_packets=N/A
DISPOSITION:default=0
DISPOSITION:dub=0
DISPOSITION:original=0
DISPOSITION:comment=0
DISPOSITION:lyrics=0
DISPOSITION:karaoke=0
DISPOSITION:forced=0
DISPOSITION:hearing_impaired=0
DISPOSITION:visual_impaired=0
DISPOSITION:clean_effects=0
DISPOSITION:attached_pic=0
DISPOSITION:timed_thumbnails=0
[/STREAM]
[STREAM]
index=0
codec_name=mp3
codec_long_name=MP3 (MPEG audio layer 3)
profile=unknown
codec_type=audio
codec_time_base=1/44100
codec_tag_string=[0][0][0][0]
codec_tag=0x0000
sample_fmt=fltp
sample_rate=44100
channels=2
channel_layout=stereo
bits_per_sample=0
id=N/A
r_frame_rate=0/0
avg_frame_rate=0/0
time_base=1/14112000
start_pts=353600
start_time=0.025057
duration_ts=140451840
duration=9.952653
bit_rate=128000
max_bit_rate=N/A
bits_per_raw_sample=N/A
nb_frames=N/A
nb_read_frames=N/A
nb_read_packets=N/A
DISPOSITION:default=0
DISPOSITION:dub=0
DISPOSITION:original=0
DISPOSITION:comment=0
DISPOSITION:lyrics=0
DISPOSITION:karaoke=0
DISPOSITION:forced=0
DISPOSITION:hearing_impaired=0
DISPOSITION:visual_impaired=0
DISPOSITION:clean_effects=0
DISPOSITION:attached_pic=0
DISPOSITION:timed_thumbnails=0
TAG:encoder=LAME3.98r
[/STREAM]
[STREAM]
index=0
codec_name=mp3
codec_long_name=MP3 (MPEG audio layer 3)
profile=unknown
codec_type=audio
codec_time_base=1/44100
codec_tag_string=[0][0][0][0]
codec_tag=0x0000
sample_fmt=fltp
sample_rate=44100
channels=2
channel_layout=stereo
bits_per_sample=0
id=N/A
r_frame_rate=0/0
avg_frame_rate=0/0
time_base=1/14112000
start_pts=353600
start_time=0.025057
duration_ts=37232640
duration=2.638367
bit_rate=128000
max_bit_rate=N/A
bits_per_raw_sample=N/A
nb_frames=N/A
nb_read_frames=N/A
nb_read_packets=N/A
DISPOSITION:default=0
DISPOSITION:dub=0
DISPOSITION:original=0
DISPOSITION:comment=0
DISPOSITION:lyrics=0
DISPOSITION:karaoke=0
DISPOSITION:forced=0
DISPOSITION:hearing_impaired=0
DISPOSITION:visual_impaired=0
DISPOSITION:clean_effects=0
DISPOSITION:attached_pic=0
DISPOSITION:timed_thumbnails=0
TAG:encoder=LAME3.98r
[/STREAM]
